<?xml version="1.0" encoding="UTF-8"?>
<svg xmlns="http://www.w3.org/2000/svg" version="1.1" viewBox="0 0 725.76 967.68">
  <defs>
    <style>
      .st0 {
        display: none;
        opacity: .3;
      }

      .st1 {
        fill: #78293a;
      }

      .st2 {
        fill: #fff;
      }

      .st3 {
        fill: #293a59;
      }

      .st4 {
        fill: #77293a;
      }

      .st5 {
        fill: none;
        stroke: #221f20;
        stroke-miterlimit: 10;
      }
    </style>
  </defs>
  <g id="Layer_1" class="st0">
    <path class="st5" d="M336.63,579.36c12.42,12.42,62.02,24.51,115.87-.57,97.1-45.22,118.07-175.92,46.41-237-60.63-51.68-100.49-46.61-213.8-19.75-134.65,31.92-191.09,0-191.09,0,47.4,53.33,167.86,60.34,167.86,60.34,34.55,41.77,74.47,24.59,74.47,24.59,8.59,27.85,49.49,17.17,49.49,17.17,22.75,20.02,46.87,25.03,46.87,25.03,44.59,96.01-25.94,122.86-25.94,122.86-104.2,40.04-144.89-56.47-144.89-56.47,36.73,36.73,74.7,33.02,74.7,33.02,0,0,57.37-1.24,49.11-44.16s-32.19-25.59-32.19-25.59c-33.84,32.19-33.51,23.43-33.51,23.43,15.77-16.99,21.84-47.32,21.84-47.32-7.89,6.07-42.47,23.05-46.11,33.37-3.64,10.31,12.25,16.71,12.25,16.71,0,0-28,11-33-21.16s45-70.84,49-73.84"/>
    <path class="st5" d="M432.73,449.16s75.77,25.42,45.99,113.96"/>
    <path class="st5" d="M540.46,456.5s-17.86-49.98-154.6-32.37c0,0,119.37-8.17,134.55,91.34"/>
    <path class="st5" d="M336.37,406.96s51.39-18.31,90.53-30.2c47.75-14.5,94.4,12.87,111.32,31.6"/>
    <path class="st5" d="M261.9,382.37s43.85,9.71,147.36-36.71c0,0,44.24-19.82,89.66-3.88"/>
    <path class="st5" d="M323.86,419.86s-.21,6.1-8.46,11.67,8.46-11.67,8.46-11.67Z"/>
  </g>
  <g id="Layer_4">
    <circle class="st3" cx="377.52" cy="449.16" r="133.13"/>
  </g>
  <g id="Layer_2">
    <path class="st2" d="M324,410s-38.15,27.38-47.54,57.92,15.34,44.93,31.54,37.08c0,0-22.33-10.2-8.8-21.16s40.65-26.11,42.66-28.91-8.33,35.19-21.84,47.32c0,0,1.69,6.94,32.31-22.29,0,0,23.77-19.83,33.07,22.85s-48.79,45.75-48.79,45.75c0,0-43.21,2.4-74.7-33.02,0,0,45.62,98.75,145.81,54.39,16.88-7.47,45.58-35.68,51.45-53.19,6.23-18.58.28-45.46-26.43-67.6,0,0-28.38-7.01-46.87-25.03,0,0-42.45,10.3-49.49-17.17,0,0-6.3,2.61-12.37,3.04Z"/>
    <path class="st4" d="M336.37,579.3c-.27.03,78.24,34.2,142.35-16.19,0,0,33.34-86.87-45.99-113.96,0,0,60.16,113.96-96.36,130.14Z"/>
    <path class="st2" d="M385.86,424.13s118.14-8.89,134.55,92.63c0,0-14.71,27.35-41.69,46.36,0,0,21.27-50.68-9.57-86.73,0,0-11.39-14.42-36.42-27.22.12.06-27.28-6.32-46.87-25.03Z"/>
    <path class="st4" d="M385.86,424.13s113.85-34.45,154.6,32.37c0,0-3.44,31.82-20.05,60.26,0,0-5.63-61.09-68.17-82.52,0,0-32.32-12.05-66.38-10.1Z"/>
    <path class="st2" d="M540.46,456.5s3.18-16.61,0-36.13-33.73-49.57-92.72-47.69-111.37,34.28-111.37,34.28c0,0,1.05,30.59,49.49,17.17,70.05-19.4,134.55-5.56,154.6,32.37Z"/>
    <path class="st1" d="M540.46,420.37s-2.06-31.53-28.46-65.5-113.81-27.57-170.31-1.99c-56.5,25.58-79.8,29.49-79.8,29.49,0,0,26.44,42.82,74.47,24.59,34.02-12.91,148.8-77.22,204.09,13.41Z"/>
    <path class="st2" d="M261.9,382.37s-98.68,14.93-167.86-60.34c0,0,58.76,38.01,219.07-6.5s205.25,48.13,205.25,48.13c0,0-34.53-66.59-188.83-5.38,0,0-35.26,18.8-67.62,24.08Z"/>
  </g>
</svg>
